<svg xmlns="http://www.w3.org/2000/svg" viewBox="0 0 16 16" fill="none" shape-rendering="crispEdges" aria-hidden="true"><!-- Generated by DiceBear (https://www.dicebear.com) --><metadata xmlns:rdf="http://www.w3.org/1999/02/22-rdf-syntax-ns#" xmlns:xsi="http://www.w3.org/2001/XMLSchema-instance" xmlns:dc="http://purl.org/dc/elements/1.1/" xmlns:dcterms="http://purl.org/dc/terms/"><rdf:RDF><rdf:Description><dc:title>Pixel Art</dc:title><dc:creator>DiceBear</dc:creator><dc:source xsi:type="dcterms:URI">https://www.figma.com/community/file/1198754108850888330</dc:source><dcterms:license xsi:type="dcterms:URI">https://creativecommons.org/publicdomain/zero/1.0/</dcterms:license><dc:rights>“Pixel Art” (https://www.figma.com/community/file/1198754108850888330) by “DiceBear”, licensed under “CC0 1.0” (https://creativecommons.org/publicdomain/zero/1.0/)</dc:rights></rdf:Description></rdf:RDF></metadata><defs><g id="clothes-variant10-8c801eca"><path d="M2 1h1v1h6V1h1v1h1v2H1V2h1z" fill="#5bc0de"/><path fill="white" fill-opacity=".5" d="M7 3h2v1H7z"/></g><g id="eyes-variant04-8c801eca"><path d="M2 0H1v2h2V1H2zm5 0H6v2h2V1H7z" fill="white"/><path fill="#5b7c8b" d="M1 1h1v1H1zm5 0h1v1H6z"/></g><g id="mouth-happy07-8c801eca"><path d="M4 2V1H1V0H0v1h1v1z" fill="#d29985"/></g><g id="hair-short09-8c801eca"><path fill="#611c17" d="M7 1h5v1H7zM4 2h7v1H4zM3 3h5v1H3z"/></g><clipPath id="clip-8c801eca"><rect width="16" height="16" rx="0" ry="0"/></clipPath></defs><g clip-path="url(#clip-8c801eca)"><path d="M4 2h8v1h1v3h1v2h-1v3h-1v1H9v1h4v1h1v2H2v-2h1v-1h4v-1H4v-1H3V8H2V6h1V3h1z" fill="#ffdbac"/><path d="M4 2h8v1h1v3h1v2h-1v3h-1v1H4v-1H3V8H2V6h1V3h1z" fill="white" fill-opacity=".1"/><use transform="translate(2 12)" href="#clothes-variant10-8c801eca"/><use transform="translate(4 5)" href="#eyes-variant04-8c801eca"/><use transform="translate(6 9)" href="#mouth-happy07-8c801eca"/><use href="#hair-short09-8c801eca"/></g></svg>