<svg xmlns="http://www.w3.org/2000/svg" viewBox="0 0 16 16" fill="none" shape-rendering="crispEdges" aria-hidden="true"><!-- Generated by DiceBear (https://www.dicebear.com) --><metadata xmlns:rdf="http://www.w3.org/1999/02/22-rdf-syntax-ns#" xmlns:xsi="http://www.w3.org/2001/XMLSchema-instance" xmlns:dc="http://purl.org/dc/elements/1.1/" xmlns:dcterms="http://purl.org/dc/terms/"><rdf:RDF><rdf:Description><dc:title>Pixel Art</dc:title><dc:creator>DiceBear</dc:creator><dc:source xsi:type="dcterms:URI">https://www.figma.com/community/file/1198754108850888330</dc:source><dcterms:license xsi:type="dcterms:URI">https://creativecommons.org/publicdomain/zero/1.0/</dcterms:license><dc:rights>“Pixel Art” (https://www.figma.com/community/file/1198754108850888330) by “DiceBear”, licensed under “CC0 1.0” (https://creativecommons.org/publicdomain/zero/1.0/)</dc:rights></rdf:Description></rdf:RDF></metadata><defs><g id="clothes-variant20-cd4888da"><path fill="#44c585" d="M2 2h8v2H2z"/><path fill="white" fill-opacity=".3" d="M2 2h1v2H2zm7 0h1v2H9z"/></g><g id="eyes-variant08-cd4888da"><path fill="white" d="M0 0h3v2H0zm5 0h3v2H5z"/><path fill="#5b7c8b" d="M5 1h1v1H5zM0 1h1v1H0z"/></g><g id="mouth-happy05-cd4888da"><path d="M1 0v2h2V1H2V0z" fill="#e35d6a"/><path d="M3 2V1H2V0H1v1h1v1z" fill="white" fill-opacity=".2"/></g><g id="hair-short20-cd4888da"><path fill="#91cb15" d="M6 2h4v1H6zm1 1h2v1H7z"/></g><clipPath id="clip-cd4888da"><rect width="16" height="16" rx="0" ry="0"/></clipPath></defs><g clip-path="url(#clip-cd4888da)"><path d="M4 2h8v1h1v3h1v2h-1v3h-1v1H9v1h4v1h1v2H2v-2h1v-1h4v-1H4v-1H3V8H2V6h1V3h1z" fill="#ffdbac"/><path d="M4 2h8v1h1v3h1v2h-1v3h-1v1H4v-1H3V8H2V6h1V3h1z" fill="white" fill-opacity=".1"/><use transform="translate(2 12)" href="#clothes-variant20-cd4888da"/><use transform="translate(4 5)" href="#eyes-variant08-cd4888da"/><use transform="translate(6 9)" href="#mouth-happy05-cd4888da"/><use href="#hair-short20-cd4888da"/></g></svg>