<svg xmlns="http://www.w3.org/2000/svg" viewBox="0 0 16 16" fill="none" shape-rendering="crispEdges" aria-hidden="true"><!-- Generated by DiceBear (https://www.dicebear.com) --><metadata xmlns:rdf="http://www.w3.org/1999/02/22-rdf-syntax-ns#" xmlns:xsi="http://www.w3.org/2001/XMLSchema-instance" xmlns:dc="http://purl.org/dc/elements/1.1/" xmlns:dcterms="http://purl.org/dc/terms/"><rdf:RDF><rdf:Description><dc:title>Pixel Art</dc:title><dc:creator>DiceBear</dc:creator><dc:source xsi:type="dcterms:URI">https://www.figma.com/community/file/1198754108850888330</dc:source><dcterms:license xsi:type="dcterms:URI">https://creativecommons.org/publicdomain/zero/1.0/</dcterms:license><dc:rights>“Pixel Art” (https://www.figma.com/community/file/1198754108850888330) by “DiceBear”, licensed under “CC0 1.0” (https://creativecommons.org/publicdomain/zero/1.0/)</dc:rights></rdf:Description></rdf:RDF></metadata><defs><g id="accessories-variant03-be4cf261"><path fill="#d3d3d3" d="M12 0h1v2h-1zM1 0h1v2H1z"/></g><g id="clothes-variant02-be4cf261"><path d="M8 1h3v1h1v2H0V2h1V1h3v2h4z" fill="#00b159"/><path fill="white" fill-opacity=".2" d="M3 2h1v1H3zM2 3l1 .007-.007 1-1-.007zm3 0 1 .007-.007 1-1-.007zM1 1h1v1H1zM0 2h1v1H0zm10-1h1v1h-1zM9 2h1v1H9zM8 3h1v1H8zm3 0h1v1h-1z"/></g><g id="eyes-variant04-be4cf261"><path d="M2 0H1v2h2V1H2zm5 0H6v2h2V1H7z" fill="white"/><path fill="#697b94" d="M1 1h1v1H1zm5 0h1v1H6z"/></g><g id="glasses-light03-be4cf261"><path fill="#4b4b4b" d="M0 1h12v1H0zm1 2h10v1H1zm0-1h1v1H1zm9 0h1v1h-1z"/><path fill="white" fill-opacity=".3" d="M2 2h8v1H2z"/><path fill="white" fill-opacity=".2" d="M0 1h1v1H0zm11 0h1v1h-1z"/><path fill="black" fill-opacity=".3" d="M5 2h2v1H5z"/></g><g id="mouth-happy04-be4cf261"><path d="M3 0v1H2v1h2V0z" fill="#d29985"/></g><g id="hair-long17-be4cf261"><path d="M5 1h7v1h1v1h1v3h-1V4h-2V3H5v1H4v1H3v1H2v2h1v3h1v1H1V4h1V3h1V2h2z" fill="#611c17"/></g><clipPath id="clip-be4cf261"><rect width="16" height="16" rx="0" ry="0"/></clipPath></defs><g clip-path="url(#clip-be4cf261)"><path d="M4 2h8v1h1v3h1v2h-1v3h-1v1H9v1h4v1h1v2H2v-2h1v-1h4v-1H4v-1H3V8H2V6h1V3h1z" fill="#eac393"/><path d="M4 2h8v1h1v3h1v2h-1v3h-1v1H4v-1H3V8H2V6h1V3h1z" fill="white" fill-opacity=".1"/><use transform="translate(1 7)" href="#accessories-variant03-be4cf261"/><use transform="translate(2 12)" href="#clothes-variant02-be4cf261"/><use transform="translate(4 5)" href="#eyes-variant04-be4cf261"/><use transform="translate(2 4)" href="#glasses-light03-be4cf261"/><use transform="translate(6 9)" href="#mouth-happy04-be4cf261"/><use href="#hair-long17-be4cf261"/></g></svg>