<svg xmlns="http://www.w3.org/2000/svg" viewBox="0 0 16 16" fill="none" shape-rendering="crispEdges" aria-hidden="true"><!-- Generated by DiceBear (https://www.dicebear.com) --><metadata xmlns:rdf="http://www.w3.org/1999/02/22-rdf-syntax-ns#" xmlns:xsi="http://www.w3.org/2001/XMLSchema-instance" xmlns:dc="http://purl.org/dc/elements/1.1/" xmlns:dcterms="http://purl.org/dc/terms/"><rdf:RDF><rdf:Description><dc:title>Pixel Art</dc:title><dc:creator>DiceBear</dc:creator><dc:source xsi:type="dcterms:URI">https://www.figma.com/community/file/1198754108850888330</dc:source><dcterms:license xsi:type="dcterms:URI">https://creativecommons.org/publicdomain/zero/1.0/</dcterms:license><dc:rights>“Pixel Art” (https://www.figma.com/community/file/1198754108850888330) by “DiceBear”, licensed under “CC0 1.0” (https://creativecommons.org/publicdomain/zero/1.0/)</dc:rights></rdf:Description></rdf:RDF></metadata><defs><g id="clothes-variant09-87db8aa4"><path d="M2 1h1v2h6V1h1v2h1v1H1V3h1z" fill="#00b159"/><path fill="white" fill-opacity=".2" d="M2 1h1v2H2zm7 0h1v2H9z"/></g><g id="eyes-variant02-87db8aa4"><path fill-rule="evenodd" clip-rule="evenodd" d="M7 0H6v2h2V1H7zM2 0H1v2h2V1H2z" fill="white"/><path fill-rule="evenodd" clip-rule="evenodd" d="M6 0v1h1v1H5V0zM1 0v1h1v1H0V0z" fill="#697b94"/><path fill-rule="evenodd" clip-rule="evenodd" d="M6 0v1H5V0zm1 1v1H6V1zM1 0v1H0V0zm1 1v1H1V1z" fill="white" fill-opacity=".5"/></g><g id="mouth-happy04-87db8aa4"><path d="M3 0v1H2v1h2V0z" fill="#c98276"/></g><g id="hair-short18-87db8aa4"><path fill="#83623b" d="M2 3h2v3H2zm10 0h2v3h-2z"/><path fill="#83623b" d="M12 3h2v3h-2z"/></g><clipPath id="clip-87db8aa4"><rect width="16" height="16" rx="0" ry="0"/></clipPath></defs><g clip-path="url(#clip-87db8aa4)"><path d="M4 2h8v1h1v3h1v2h-1v3h-1v1H9v1h4v1h1v2H2v-2h1v-1h4v-1H4v-1H3V8H2V6h1V3h1z" fill="#cb9e6e"/><path d="M4 2h8v1h1v3h1v2h-1v3h-1v1H4v-1H3V8H2V6h1V3h1z" fill="white" fill-opacity=".1"/><use transform="translate(2 12)" href="#clothes-variant09-87db8aa4"/><use transform="translate(4 5)" href="#eyes-variant02-87db8aa4"/><use transform="translate(6 9)" href="#mouth-happy04-87db8aa4"/><use href="#hair-short18-87db8aa4"/></g></svg>