<svg xmlns="http://www.w3.org/2000/svg" viewBox="0 0 16 16" fill="none" shape-rendering="crispEdges" aria-hidden="true"><!-- Generated by DiceBear (https://www.dicebear.com) --><metadata xmlns:rdf="http://www.w3.org/1999/02/22-rdf-syntax-ns#" xmlns:xsi="http://www.w3.org/2001/XMLSchema-instance" xmlns:dc="http://purl.org/dc/elements/1.1/" xmlns:dcterms="http://purl.org/dc/terms/"><rdf:RDF><rdf:Description><dc:title>Pixel Art</dc:title><dc:creator>DiceBear</dc:creator><dc:source xsi:type="dcterms:URI">https://www.figma.com/community/file/1198754108850888330</dc:source><dcterms:license xsi:type="dcterms:URI">https://creativecommons.org/publicdomain/zero/1.0/</dcterms:license><dc:rights>“Pixel Art” (https://www.figma.com/community/file/1198754108850888330) by “DiceBear”, licensed under “CC0 1.0” (https://creativecommons.org/publicdomain/zero/1.0/)</dc:rights></rdf:Description></rdf:RDF></metadata><defs><g id="clothes-variant09-89169437"><path d="M2 1h1v2h6V1h1v2h1v1H1V3h1z" fill="#ffc425"/><path fill="white" fill-opacity=".2" d="M2 1h1v2H2zm7 0h1v2H9z"/></g><g id="eyes-variant03-89169437"><path d="M6 0h1v2H5V1h1zM1 0h1v2H0V1h1z" fill="white"/><path transform="matrix(-1 0 0 1 7 1)" fill="#876658" d="M0 0h1v1H0z"/><path transform="matrix(-1 0 0 1 2 1)" fill="#876658" d="M0 0h1v1H0z"/></g><g id="glasses-light02-89169437"><path fill-rule="evenodd" clip-rule="evenodd" d="M12 1H0v1h1v2h4V3h2v1h4V2h1zm-2 1H7v1h3zM5 3H2V2h3z" fill="#a04b5d"/><path fill="white" fill-opacity=".3" d="M2 2h3v1H2z"/><path fill="white" fill-opacity=".2" d="M0 1h1v1H0zm5 0h2v1H5zm6 0h1v1h-1z"/><path fill="white" fill-opacity=".3" d="M7 2h3v1H7z"/></g><g id="mouth-sad02-89169437"><path d="M1 0v1h2v1h1V1H3V0z" fill="#de0f0d"/></g><g id="hair-long04-89169437"><path d="M12 1H5v1H4v1H3v1H2v2h2V5h1V4h1V3h5v1h1v1h1v1h1V3h-1V2h-1zm1 7h1v4h-2v-1h1zM2 8h1v3h1v1H2z" fill="#611c17"/></g><clipPath id="clip-89169437"><rect width="16" height="16" rx="0" ry="0"/></clipPath></defs><g clip-path="url(#clip-89169437)"><path d="M4 2h8v1h1v3h1v2h-1v3h-1v1H9v1h4v1h1v2H2v-2h1v-1h4v-1H4v-1H3V8H2V6h1V3h1z" fill="#a26d3d"/><path d="M4 2h8v1h1v3h1v2h-1v3h-1v1H4v-1H3V8H2V6h1V3h1z" fill="white" fill-opacity=".1"/><use transform="translate(2 12)" href="#clothes-variant09-89169437"/><use transform="translate(4 5)" href="#eyes-variant03-89169437"/><use transform="translate(2 4)" href="#glasses-light02-89169437"/><use transform="translate(6 9)" href="#mouth-sad02-89169437"/><use href="#hair-long04-89169437"/></g></svg>